<svg id="Camada_1" data-name="Camada 1" xmlns="http://www.w3.org/2000/svg" viewBox="0 0 32 32"><path d="M30.94,19.17,28.2,17c0-.31.05-.66.05-1s0-.72-.05-1l2.73-2.14a1.74,1.74,0,0,0,.43-2.23l-3-5.18a1.72,1.72,0,0,0-2.16-.77L23,6a12.17,12.17,0,0,0-1.78-1L20.72,1.5A1.74,1.74,0,0,0,19,0H13a1.73,1.73,0,0,0-1.72,1.48l-.49,3.43A13.49,13.49,0,0,0,9,5.94L5.79,4.64a1.76,1.76,0,0,0-2.14.76l-3,5.19a1.73,1.73,0,0,0,.42,2.24L3.8,15c0,.38,0,.71,0,1s0,.65,0,1L1.07,19.17A1.74,1.74,0,0,0,.64,21.4l3,5.18a1.71,1.71,0,0,0,2.16.77L9,26.05a11.75,11.75,0,0,0,1.78,1l.49,3.42A1.73,1.73,0,0,0,13,32h6a1.73,1.73,0,0,0,1.72-1.48l.49-3.43a12.07,12.07,0,0,0,1.77-1l3.24,1.3a1.73,1.73,0,0,0,2.14-.75l3-5.22A1.74,1.74,0,0,0,30.94,19.17ZM16,11.74A4.26,4.26,0,1,1,11.74,16,4.26,4.26,0,0,1,16,11.74Z"/></svg>