<svg id="Camada_1" data-name="Camada 1" xmlns="http://www.w3.org/2000/svg" viewBox="0 0 32 32"><path d="M29.59,13.25,16.42,7a.87.87,0,0,0-.42-.1H12.08a1,1,0,0,0-1,1V8.5a2.28,2.28,0,0,1-2.28,2.28H1a1,1,0,0,0-1,1V22.2a2.94,2.94,0,0,0,2.94,2.94H29.06A2.94,2.94,0,0,0,32,22.2V17.08A4.27,4.27,0,0,0,29.59,13.25ZM30,17.08v2.19H27.43V14.4l1.32.62A2.31,2.31,0,0,1,30,17.08Zm-17-8.26h2.73L17,9.39l-1,1a1,1,0,0,0,1.35,1.42l0,0,1.5-1.51,2.1,1-1.07,1.08a1,1,0,1,0,1.35,1.42l0,0,1.57-1.57,2.64,1.26v5.82H22.76L9.16,12.72a4.24,4.24,0,0,0,3.89-3.9ZM2,12.74H4.68l13.56,6.53H2Zm27.1,10.45H2.94a1,1,0,0,1-1-1v-1H30v1A1,1,0,0,1,29.06,23.19Z"/></svg>