<svg id="Camada_1" data-name="Camada 1" xmlns="http://www.w3.org/2000/svg" viewBox="0 0 32 32"><g id="shopping-cart"><path id="Caminho_290" data-name="Caminho 290" d="M9.6,21.07H27.24a3.64,3.64,0,0,0,3.63-3.63h0V9.94a.08.08,0,0,0,0,0v0s0,0,0,0,0,0,0-.05,0,0,0,0l0,0a2622488257877.38,2622488257877.38,0,0,1,0-.08l0,0s0,0,0,0,0,0,0,0l0,0,0,0,0,0s0,0,0,0l0,0,0,0,0,0,0,0,0,0,0,0,0,0,0,0h0l-.05,0h-.11L7.76,6.05V2.94a.28.28,0,0,0,0-.09,0,0,0,0,0,0,0V2.76s0,0,0,0v0l0-.06s0,0,0,0a.08.08,0,0,0,0,0l0,0,0,0s0,0,0,0l0,0,0,0,0,0,0,0,0,0,0,0,0,0,0,0,0,0,0,0-.09,0L2.36.07a.89.89,0,0,0-.69,1.64h0L6,3.52V23a3.63,3.63,0,0,0,3.17,3.59,3.58,3.58,0,1,0,6.16,0h8a3.58,3.58,0,1,0,3.09-1.78H9.6A1.85,1.85,0,0,1,7.75,23V20.57A3.64,3.64,0,0,0,9.6,21.07ZM14,28.41a1.81,1.81,0,1,1-1.8-1.81A1.81,1.81,0,0,1,14,28.41Zm14.17,0a1.81,1.81,0,1,1-1.81-1.81,1.81,1.81,0,0,1,1.81,1.81Zm-1-9.11H9.6a1.85,1.85,0,0,1-1.85-1.86V7.84l21.34,2.94v6.65a1.86,1.86,0,0,1-1.85,1.87Z"/></g></svg>