<svg id="Camada_1" data-name="Camada 1" xmlns="http://www.w3.org/2000/svg" viewBox="0 0 32 32"><g id="christmas-stocking"><g id="Layer_2" data-name="Layer 2"><path id="Caminho_294" data-name="Caminho 294" d="M30.36,25.91a5.51,5.51,0,0,0-2.26-5.65A18.45,18.45,0,0,0,22,18.21c-.71-.15-1.43-.31-2.17-.5L19.78,9.9h.8A.87.87,0,0,0,21.44,9L21.36.86A.88.88,0,0,0,20.48,0L2.39.17a.88.88,0,0,0-.87.88L1.6,9.2a.89.89,0,0,0,.88.87h.24l.11,10.68v0l.05,5.35a5.94,5.94,0,0,0,6,5.89h0l11.46-.11h.88a14.18,14.18,0,0,0,5.37-.66A5.9,5.9,0,0,0,30.36,25.91ZM3.27,1.91l16.35-.16.07,6.41L3.33,8.32Zm5.6,28.35a4.21,4.21,0,0,1-4.25-4.17l0-4.61c.21,0,.41,0,.63,0a6.16,6.16,0,0,1,4.27,1.62,5.27,5.27,0,0,1,.66,7.18Zm12.38-.11h-.91l-8.13.08A7,7,0,0,0,13,27a7.06,7.06,0,0,0-2.34-5.18A7.94,7.94,0,0,0,5.19,19.7q-.32,0-.63,0L4.47,10,18,9.91l.08,8.49a.86.86,0,0,0,.65.83c1,.26,1.94.47,2.87.68,5,1.12,7.41,1.83,7,5.82-.44,4.19-3.6,4.48-7.38,4.43Z"/></g></g></svg>